<svg width="48" height="48" fill="none" xmlns="http://www.w3.org/2000/svg"><rect width="48" height="48" rx="8" fill="#EDF0F2"/><g clip-path="url(#a)"><path fill-rule="evenodd" clip-rule="evenodd" d="M28.28 21.22a.75.75 0 0 1 0 1.06l-5.25 5.25a.75.75 0 0 1-1.06 0l-2.25-2.25a.75.75 0 1 1 1.06-1.06l1.72 1.72 4.72-4.72a.75.75 0 0 1 1.06 0ZM33.75 24c0 5.385-4.365 9.75-9.75 9.75s-9.75-4.365-9.75-9.75 4.365-9.75 9.75-9.75c5.382.006 9.744 4.368 9.75 9.75Zm-1.5 0A8.25 8.25 0 1 0 24 32.25 8.26 8.26 0 0 0 32.25 24Z" fill="#1C1C21"/></g><defs><clipPath id="a"><path fill="#fff" transform="translate(12 12)" d="M0 0h24v24H0z"/></clipPath></defs></svg>